<?xml version="1.0" encoding="UTF-8"?>
<svg xmlns="http://www.w3.org/2000/svg" xmlns:xlink="http://www.w3.org/1999/xlink" width="64px" height="64px" viewBox="0 0 64 64" version="1.1">
<g id="surface1">
<path style=" stroke:none;fill-rule:nonzero;fill:rgb(57.254902%,57.254902%,57.254902%);fill-opacity:1;" d="M 28.179688 52.539062 L 10.949219 52.539062 C 10.589844 52.539062 10.308594 52.25 10.308594 51.898438 L 10.308594 42.648438 C 10.769531 34.589844 19.089844 34.039062 19.179688 34.03125 L 32.03125 34.03125 C 32.390625 34.03125 32.671875 34.320312 32.671875 34.671875 C 32.671875 35.019531 32.378906 35.308594 32.03125 35.308594 L 19.21875 35.308594 C 18.960938 35.328125 11.988281 35.808594 11.601562 42.679688 L 11.601562 51.261719 L 28.179688 51.261719 C 28.539062 51.261719 28.820312 51.550781 28.820312 51.898438 C 28.820312 52.25 28.53125 52.539062 28.179688 52.539062 Z M 28.179688 52.539062 "/>
<path style=" stroke:none;fill-rule:nonzero;fill:rgb(18.823529%,40.392157%,94.117647%);fill-opacity:1;" d="M 45.839844 56.441406 L 41.089844 56.441406 C 40.769531 56.441406 40.511719 56.179688 40.511719 55.859375 L 40.511719 52.320312 L 38.238281 50.820312 L 35.078125 52.519531 C 34.808594 52.671875 34.460938 52.570312 34.300781 52.300781 L 31.859375 48.070312 C 31.699219 47.800781 31.789062 47.449219 32.058594 47.28125 L 35.308594 45.328125 L 35.308594 42.980469 L 32.070312 41.101562 C 31.800781 40.941406 31.699219 40.589844 31.859375 40.308594 L 34.171875 36.269531 C 34.320312 36.011719 34.648438 35.898438 34.921875 36.03125 L 38.199219 37.570312 L 40.371094 36.359375 L 40.570312 32.730469 C 40.589844 32.421875 40.839844 32.179688 41.148438 32.179688 L 45.828125 32.179688 C 46.140625 32.179688 46.390625 32.421875 46.410156 32.730469 L 46.589844 36.691406 L 48.621094 37.71875 L 51.851562 36.03125 C 52.121094 35.890625 52.46875 35.980469 52.621094 36.261719 L 55.191406 40.75 C 55.351562 41.03125 55.25 41.378906 54.980469 41.539062 L 51.820312 43.378906 L 51.96875 45.890625 L 54.699219 47.878906 C 54.941406 48.050781 55.011719 48.371094 54.859375 48.628906 L 52.738281 52.410156 C 52.589844 52.671875 52.269531 52.78125 51.988281 52.648438 L 48.730469 51.171875 L 46.398438 52.46875 L 46.398438 55.851562 C 46.398438 56.171875 46.140625 56.429688 45.820312 56.429688 Z M 41.671875 55.28125 L 45.261719 55.28125 L 45.261719 52.140625 C 45.261719 51.929688 45.371094 51.738281 45.558594 51.628906 L 48.449219 50.03125 C 48.609375 49.941406 48.800781 49.929688 48.96875 50.011719 L 52.011719 51.390625 L 53.621094 48.519531 L 51.078125 46.671875 C 50.941406 46.570312 50.851562 46.410156 50.839844 46.238281 L 50.648438 43.101562 C 50.640625 42.878906 50.75 42.671875 50.941406 42.558594 L 53.910156 40.828125 L 51.910156 37.320312 L 48.910156 38.890625 C 48.75 38.980469 48.550781 38.980469 48.378906 38.890625 L 45.78125 37.578125 C 45.589844 37.488281 45.46875 37.300781 45.460938 37.089844 L 45.289062 33.339844 L 41.710938 33.339844 L 41.519531 36.738281 C 41.511719 36.941406 41.398438 37.121094 41.21875 37.210938 L 38.511719 38.71875 C 38.351562 38.808594 38.148438 38.820312 37.980469 38.738281 L 34.921875 37.300781 L 33.160156 40.378906 L 36.191406 42.140625 C 36.371094 42.238281 36.480469 42.429688 36.480469 42.640625 L 36.480469 45.660156 C 36.480469 45.859375 36.371094 46.050781 36.199219 46.160156 L 33.160156 47.980469 L 35.03125 51.230469 L 38 49.640625 C 38.191406 49.539062 38.410156 49.550781 38.589844 49.671875 L 41.410156 51.53125 C 41.570312 51.640625 41.671875 51.820312 41.671875 52.011719 Z M 41.671875 55.28125 "/>
<path style=" stroke:none;fill-rule:nonzero;fill:rgb(18.823529%,40.392157%,94.117647%);fill-opacity:1;" d="M 43.53125 49.261719 C 40.890625 49.261719 38.75 47.109375 38.75 44.480469 C 38.75 41.851562 40.898438 39.699219 43.53125 39.699219 C 46.160156 39.699219 48.308594 41.851562 48.308594 44.480469 C 48.308594 47.109375 46.160156 49.261719 43.53125 49.261719 Z M 43.53125 40.851562 C 41.53125 40.851562 39.910156 42.480469 39.910156 44.480469 C 39.910156 46.480469 41.539062 48.101562 43.53125 48.101562 C 45.519531 48.101562 47.160156 46.46875 47.160156 44.480469 C 47.160156 42.488281 45.53125 40.851562 43.53125 40.851562 Z M 43.53125 40.851562 "/>
<path style=" stroke:none;fill-rule:nonzero;fill:rgb(57.254902%,57.254902%,57.254902%);fill-opacity:1;" d="M 28.828125 28.980469 C 23.179688 28.980469 18.578125 24.378906 18.578125 18.730469 C 18.578125 13.078125 23.179688 8.480469 28.828125 8.480469 C 34.480469 8.480469 39.078125 13.078125 39.078125 18.730469 C 39.078125 24.378906 34.480469 28.980469 28.828125 28.980469 Z M 28.828125 9.820312 C 23.910156 9.820312 19.910156 13.820312 19.910156 18.730469 C 19.910156 23.640625 23.910156 27.640625 28.828125 27.640625 C 33.75 27.640625 37.75 23.640625 37.75 18.730469 C 37.75 13.820312 33.75 9.820312 28.828125 9.820312 Z M 28.828125 9.820312 "/>
</g>
</svg>
