<?xml version="1.0" encoding="UTF-8"?>
<svg width="1600px" height="300px" viewBox="0 0 1600 300" version="1.1" xmlns="http://www.w3.org/2000/svg" xmlns:xlink="http://www.w3.org/1999/xlink" style="background: #3067F0;">
    <!-- Generator: Sketch 49 (51002) - http://www.bohemiancoding.com/sketch -->
    <title>Twitter Copy 6</title>
    <desc>Created with Sketch.</desc>
    <defs></defs>
    <g id="Twitter-Copy-6" stroke="none" stroke-width="1" fill="none" fill-rule="evenodd" stroke-linecap="round">
        <g id="Group" transform="translate(483.350288, 176.152850) rotate(-45.000000) translate(-483.350288, -176.152850) translate(231.850288, 36.652850)">
            <path d="M222,5 L338.5,5" id="Path" stroke="#FFFFFF" stroke-width="10"></path>
            <path d="M188.5,130.5 L335,130.5" id="Path-Copy-6" stroke="#F9DE38" stroke-width="10"></path>
            <path d="M349.435029,278.393398 L423.976963,278.393398" id="Path-Copy" stroke="#3DF4FF" stroke-width="8"></path>
            <path d="M0.289321881,147.289322 L117.385733,147.289322" id="Path-Copy-3" stroke="#4BA0F3" stroke-width="8"></path>
            <path d="M403.928932,226.071068 L502.679249,226.071068" id="Path-Copy-2" stroke="#3067F0" stroke-width="15"></path>
            <path d="M309.855339,182.286797 L408.605656,182.286797" id="Path-Copy-5" stroke="#3496F6" stroke-width="15"></path>
        </g>
        <g id="Group-Copy-5" transform="translate(839.308658, 99.495995) rotate(-45.000000) translate(-839.308658, -99.495995) translate(417.808658, -140.004005)">
            <path d="M767.142136,478.357864 L841.68407,478.357864" id="Path-Copy" stroke="#3DF4FF" stroke-width="8"></path>
            <path d="M-2.84217094e-14,0.5 L25.5049015,0.5" id="Path-Copy-11" stroke="#F9DE38" stroke-width="8"></path>
            <path d="M614.928932,319.071068 L713.679249,319.071068" id="Path-Copy-2" stroke="#3067F0" stroke-width="15"></path>
        </g>
        <g id="Group-Copy-3" transform="translate(482.165043, 39.504617) rotate(-45.000000) translate(-482.165043, -39.504617) translate(193.665043, -85.995383)">
            <path d="M118,117.5 L264.5,117.5" id="Path" stroke="#FFFFFF" stroke-width="10"></path>
            <path d="M430,250.5 L576.5,250.5" id="Path-Copy-9" stroke="#FFFFFF" stroke-width="10"></path>
            <path d="M118,0.5 L264.5,0.5" id="Path-Copy-6" stroke="#F9DE38" stroke-width="10"></path>
            <path d="M284,179 L358.541935,179" id="Path-Copy" stroke="#3DF4FF" stroke-width="8"></path>
            <path d="M359,149 L384.504901,149" id="Path-Copy-4" stroke="#F9DE38" stroke-width="8"></path>
            <path d="M0,73.5 L117.096411,73.5" id="Path-Copy-3" stroke="#4BA0F3" stroke-width="8"></path>
        </g>
        <g id="Group-Copy-6" transform="translate(1178.611959, 41.611959) rotate(-45.000000) translate(-1178.611959, -41.611959) translate(962.611959, -193.888041)">
            <path d="M115,436 L261.5,436" id="Path" stroke="#FFFFFF" stroke-width="10"></path>
            <path d="M9,5 L155.5,5" id="Path-Copy-10" stroke="#FFFFFF" stroke-width="10"></path>
            <path d="M281.263456,466.142136 L355.80539,466.142136" id="Path-Copy" stroke="#3DF4FF" stroke-width="8"></path>
            <path d="M54.2132034,339.213203 L90.5086402,339.213203" id="Path-Copy-4" stroke="#F9DE38" stroke-width="8"></path>
            <path d="M55.8427125,65.2157288 L81.347614,65.2157288" id="Path-Copy-8" stroke="#F9DE38" stroke-width="8"></path>
            <path d="M7.95807864e-13,376 L117.096411,376" id="Path-Copy-3" stroke="#4BA0F3" stroke-width="8"></path>
            <path d="M332.928932,384.071068 L431.679249,384.071068" id="Path-Copy-2" stroke="#3067F0" stroke-width="15"></path>
            <path d="M251.583261,360.085786 L350.333578,360.085786" id="Path-Copy-5" stroke="#3496F6" stroke-width="15"></path>
        </g>
        <g id="Group-Copy-2" transform="translate(783.889700, 270.889700) rotate(-45.000000) translate(-783.889700, -270.889700) translate(342.389700, 129.889700)">
            <path d="M336.97886,280.045202 L666.60386,280.045202" id="Path" stroke="#3496F6" stroke-width="10"></path>
            <path d="M5.68434189e-13,1.125 L263.466924,1.125" id="Path-Copy-3" stroke="#4BA0F3" stroke-width="11"></path>
            <path d="M660.090097,114.159903 L882.278309,114.159903" id="Path-Copy-2" stroke="#3067F0" stroke-width="15"></path>
            <path d="M309,78.125 L531.188212,78.125" id="Path-Copy-5" stroke="#3496F6" stroke-width="18"></path>
            <path d="M592,3.375 L814.188212,3.375" id="Path-Copy-7" stroke="#3DF4FF" stroke-width="12"></path>
        </g>
        <g id="Group-Copy-4" transform="translate(997.848069, 168.848069) rotate(-45.000000) translate(-997.848069, -168.848069) translate(556.348069, 110.848069)">
            <path d="M1.93267624e-12,1.125 L263.466924,1.125" id="Path-Copy-3" stroke="#4BA0F3" stroke-width="11"></path>
            <path d="M660.090097,114.159903 L882.278309,114.159903" id="Path-Copy-2" stroke="#3067F0" stroke-width="15"></path>
            <path d="M467,61.125 L689.188212,61.125" id="Path-Copy-5" stroke="#3496F6" stroke-width="18"></path>
            <path d="M549,23.125 L771.188212,23.125" id="Path-Copy-7" stroke="#3DF4FF" stroke-width="10"></path>
        </g>
    </g>
</svg>