<?xml version="1.0" encoding="UTF-8"?>
<svg xmlns="http://www.w3.org/2000/svg" xmlns:xlink="http://www.w3.org/1999/xlink" width="64px" height="64px" viewBox="0 0 64 64" version="1.1">
<g id="surface1">
<path style=" stroke:none;fill-rule:nonzero;fill:rgb(57.254902%,57.254902%,57.254902%);fill-opacity:1;" d="M 53.78125 43.179688 L 29.019531 43.179688 C 28.730469 43.179688 28.46875 43.070312 28.269531 42.871094 L 26.46875 41.070312 L 24.519531 42.878906 C 24.320312 43.070312 24.058594 43.179688 23.78125 43.179688 L 10.21875 43.179688 C 9.628906 43.179688 9.148438 42.699219 9.148438 42.109375 L 9.148438 21.878906 C 9.148438 21.289062 9.628906 20.808594 10.21875 20.808594 L 23.878906 20.808594 C 24.171875 20.808594 24.429688 20.921875 24.628906 21.121094 L 26.378906 22.871094 L 28.328125 21.101562 C 28.53125 20.910156 28.789062 20.808594 29.058594 20.808594 L 53.769531 20.808594 C 54.359375 20.808594 54.839844 21.289062 54.839844 21.878906 L 54.839844 42.121094 C 54.839844 42.710938 54.359375 43.191406 53.769531 43.191406 Z M 26.421875 40.050781 C 26.691406 40.050781 26.96875 40.148438 27.171875 40.359375 L 28.96875 42.160156 L 53.78125 42.179688 L 53.851562 21.878906 L 29.070312 21.808594 L 27.171875 23.589844 C 26.75 23.988281 26.089844 23.980469 25.679688 23.570312 L 23.929688 21.820312 L 10.21875 21.800781 C 10.21875 21.800781 10.148438 21.828125 10.148438 21.871094 L 10.148438 42.109375 L 23.761719 42.179688 L 25.660156 40.351562 C 25.871094 40.148438 26.128906 40.050781 26.398438 40.050781 Z M 26.421875 40.050781 "/>
<path style=" stroke:none;fill-rule:nonzero;fill:rgb(57.254902%,57.254902%,57.254902%);fill-opacity:1;" d="M 26.53125 28.898438 C 26.25 28.898438 26.03125 28.679688 26.03125 28.398438 L 26.03125 26.199219 C 26.03125 25.921875 26.25 25.699219 26.53125 25.699219 C 26.808594 25.699219 27.03125 25.921875 27.03125 26.199219 L 27.03125 28.398438 C 27.03125 28.679688 26.808594 28.898438 26.53125 28.898438 Z M 26.53125 28.898438 "/>
<path style=" stroke:none;fill-rule:nonzero;fill:rgb(57.254902%,57.254902%,57.254902%);fill-opacity:1;" d="M 26.53125 33.699219 C 26.25 33.699219 26.03125 33.480469 26.03125 33.199219 L 26.03125 31 C 26.03125 30.71875 26.25 30.5 26.53125 30.5 C 26.808594 30.5 27.03125 30.71875 27.03125 31 L 27.03125 33.199219 C 27.03125 33.480469 26.808594 33.699219 26.53125 33.699219 Z M 26.53125 33.699219 "/>
<path style=" stroke:none;fill-rule:nonzero;fill:rgb(57.254902%,57.254902%,57.254902%);fill-opacity:1;" d="M 26.53125 38.5 C 26.25 38.5 26.03125 38.28125 26.03125 38 L 26.03125 35.800781 C 26.03125 35.519531 26.25 35.300781 26.53125 35.300781 C 26.808594 35.300781 27.03125 35.519531 27.03125 35.800781 L 27.03125 38 C 27.03125 38.28125 26.808594 38.5 26.53125 38.5 Z M 26.53125 38.5 "/>
<path style=" stroke:none;fill-rule:nonzero;fill:rgb(57.254902%,57.254902%,57.254902%);fill-opacity:1;" d="M 49.421875 27.800781 L 31.550781 27.800781 C 31.269531 27.800781 31.050781 27.578125 31.050781 27.300781 C 31.050781 27.019531 31.269531 26.800781 31.550781 26.800781 L 49.410156 26.800781 C 49.691406 26.800781 49.910156 27.019531 49.910156 27.300781 C 49.910156 27.578125 49.691406 27.800781 49.410156 27.800781 Z M 49.421875 27.800781 "/>
<path style=" stroke:none;fill-rule:nonzero;fill:rgb(57.254902%,57.254902%,57.254902%);fill-opacity:1;" d="M 49.421875 32.601562 L 31.550781 32.601562 C 31.269531 32.601562 31.050781 32.378906 31.050781 32.101562 C 31.050781 31.820312 31.269531 31.601562 31.550781 31.601562 L 49.410156 31.601562 C 49.691406 31.601562 49.910156 31.820312 49.910156 32.101562 C 49.910156 32.378906 49.691406 32.601562 49.410156 32.601562 Z M 49.421875 32.601562 "/>
<path style=" stroke:none;fill-rule:nonzero;fill:rgb(57.254902%,57.254902%,57.254902%);fill-opacity:1;" d="M 42.398438 37.398438 L 31.558594 37.398438 C 31.28125 37.398438 31.058594 37.179688 31.058594 36.898438 C 31.058594 36.621094 31.28125 36.398438 31.558594 36.398438 L 42.398438 36.398438 C 42.679688 36.398438 42.898438 36.621094 42.898438 36.898438 C 42.898438 37.179688 42.679688 37.398438 42.398438 37.398438 Z M 42.398438 37.398438 "/>
<path style=" stroke:none;fill-rule:nonzero;fill:rgb(18.823529%,40.392157%,94.117647%);fill-opacity:1;" d="M 21.019531 37.871094 C 20.871094 37.871094 20.710938 37.800781 20.609375 37.660156 L 13.679688 28.070312 C 13.519531 27.851562 13.570312 27.53125 13.789062 27.371094 C 14.011719 27.210938 14.328125 27.261719 14.488281 27.480469 L 21.421875 37.070312 C 21.578125 37.289062 21.53125 37.609375 21.308594 37.769531 C 21.21875 37.828125 21.121094 37.859375 21.019531 37.859375 Z M 21.019531 37.871094 "/>
<path style=" stroke:none;fill-rule:nonzero;fill:rgb(18.823529%,40.392157%,94.117647%);fill-opacity:1;" d="M 20.449219 32.199219 C 19.308594 32.199219 18.378906 31.269531 18.378906 30.128906 C 18.378906 28.988281 19.308594 28.058594 20.449219 28.058594 C 21.589844 28.058594 22.519531 28.988281 22.519531 30.128906 C 22.519531 31.269531 21.589844 32.199219 20.449219 32.199219 Z M 20.449219 29.070312 C 19.859375 29.070312 19.378906 29.550781 19.378906 30.140625 C 19.378906 30.730469 19.859375 31.210938 20.449219 31.210938 C 21.039062 31.210938 21.519531 30.730469 21.519531 30.140625 C 21.519531 29.550781 21.039062 29.070312 20.449219 29.070312 Z M 20.449219 29.070312 "/>
<path style=" stroke:none;fill-rule:nonzero;fill:rgb(18.823529%,40.392157%,94.117647%);fill-opacity:1;" d="M 15.019531 37.320312 C 13.878906 37.320312 12.960938 36.390625 12.960938 35.25 C 12.960938 34.109375 13.890625 33.179688 15.019531 33.179688 C 16.148438 33.179688 17.089844 34.109375 17.089844 35.25 C 17.089844 36.390625 16.160156 37.320312 15.019531 37.320312 Z M 15.019531 34.191406 C 14.429688 34.191406 13.960938 34.671875 13.960938 35.261719 C 13.960938 35.851562 14.441406 36.328125 15.019531 36.328125 C 15.601562 36.328125 16.089844 35.851562 16.089844 35.261719 C 16.089844 34.671875 15.609375 34.191406 15.019531 34.191406 Z M 15.019531 34.191406 "/>
</g>
</svg>
