<?xml version="1.0" encoding="UTF-8"?>
<svg width="60px" height="60px" viewBox="0 0 60 60" version="1.1" xmlns="http://www.w3.org/2000/svg" xmlns:xlink="http://www.w3.org/1999/xlink">
    <!-- Generator: Sketch 49 (51002) - http://www.bohemiancoding.com/sketch -->
    <title>Artboard Copy 2</title>
    <desc>Created with Sketch.</desc>
    <defs></defs>
    <g id="Artboard-Copy-2" stroke="none" stroke-width="1" fill="none" fill-rule="evenodd">
        <g id="03_wrx_coins">
            <g id="Group" transform="translate(9.000000, 10.800000)" fill-rule="nonzero">
                <path d="M40.38,37.74 L1.8,37.74 C0.84,37.74 0.06,36.96 0.06,36 L0.06,31.44 C0.06,30.48 0.84,29.7 1.8,29.7 L5.28,29.7 C5.58,29.7 5.82,29.94 5.82,30.24 C5.82,30.54 5.58,30.78 5.28,30.78 L1.8,30.78 C1.44,30.78 1.2,31.08 1.2,31.38 L1.2,35.94 C1.2,36.3 1.5,36.54 1.8,36.54 L40.44,36.54 C40.8,36.54 41.04,36.24 41.04,35.94 L41.04,31.38 C41.04,31.02 40.74,30.78 40.44,30.78 L36.6,30.78 C36.3,30.78 36.06,30.54 36.06,30.24 C36.06,29.94 36.3,29.7 36.6,29.7 L40.38,29.7 C41.34,29.7 42.12,30.48 42.12,31.44 L42.12,36 C42.12,36.96 41.34,37.74 40.38,37.74 Z" id="Shape" fill="#929292"></path>
                <path d="M30.3,37.68 C30.12,37.68 29.94,37.62 29.82,37.44 C29.64,37.2 29.7,36.84 30,36.66 C34.62,33.6 37.38,28.5 37.38,22.92 C37.38,18.54 35.64,14.4 32.58,11.28 C29.46,8.16 25.32,6.48 20.94,6.48 C16.56,6.48 12.42,8.22 9.3,11.28 C6.18,14.4 4.5,18.54 4.5,22.92 C4.5,28.38 7.2,33.48 11.76,36.54 C12,36.72 12.06,37.08 11.88,37.32 C11.7,37.56 11.34,37.62 11.1,37.44 C6.3,34.2 3.36,28.74 3.36,22.92 C3.36,18.24 5.16,13.8 8.52,10.5 C11.88,7.2 16.26,5.34 20.94,5.34 C25.62,5.34 30.06,7.14 33.36,10.5 C36.66,13.8 38.52,18.24 38.52,22.92 C38.52,28.8 35.58,34.32 30.66,37.56 C30.54,37.62 30.42,37.68 30.3,37.68 Z" id="Shape" fill="#929292"></path>
                <path d="M8.82,11.1 C8.52,11.1 8.28,10.86 8.28,10.56 L8.28,7.2 C8.28,6.9 8.52,6.66 8.82,6.66 C9.12,6.66 9.36,6.9 9.36,7.2 L9.36,10.56 C9.36,10.86 9.12,11.1 8.82,11.1 Z" id="Shape" fill="#929292"></path>
                <path d="M10.8,4.56 C10.5,4.56 10.26,4.32 10.26,4.02 L10.26,0.66 C10.26,0.36 10.5,0.12 10.8,0.12 C11.1,0.12 11.34,0.36 11.34,0.66 L11.34,4.02 C11.34,4.26 11.1,4.56 10.8,4.56 Z" id="Shape" fill="#929292"></path>
                <path d="M3.96,11.34 C3.66,11.34 3.42,11.1 3.42,10.8 L3.42,6.12 C3.42,5.82 3.66,5.58 3.96,5.58 C4.26,5.58 4.5,5.82 4.5,6.12 L4.5,10.8 C4.5,11.1 4.26,11.34 3.96,11.34 Z" id="Shape" fill="#929292"></path>
                <path d="M31.68,7.32 C31.38,7.32 31.14,7.08 31.14,6.78 L31.14,0.66 C31.14,0.36 31.38,0.12 31.68,0.12 C31.98,0.12 32.22,0.36 32.22,0.66 L32.22,6.78 C32.22,7.08 31.98,7.32 31.68,7.32 Z" id="Shape" fill="#929292"></path>
                <path d="M37.92,14.16 C37.62,14.16 37.38,13.92 37.38,13.62 L37.38,3.42 C37.38,3.12 37.62,2.88 37.92,2.88 C38.22,2.88 38.46,3.12 38.46,3.42 L38.46,13.62 C38.52,13.92 38.28,14.16 37.92,14.16 Z" id="Shape" fill="#929292"></path>
                <path d="M17.94,4.56 C17.64,4.56 17.4,4.32 17.4,4.02 L17.4,1.38 C17.4,1.08 17.64,0.84 17.94,0.84 C18.24,0.84 18.48,1.08 18.48,1.38 L18.48,4.02 C18.48,4.32 18.24,4.56 17.94,4.56 Z" id="Shape" fill="#929292"></path>
                <path d="M25.08,27.78 L22.74,27.78 L21.42,22.68 C21.36,22.5 21.3,22.14 21.18,21.54 C21.06,20.94 21,20.58 21,20.4 C21,20.64 20.88,21 20.82,21.54 C20.7,22.08 20.64,22.44 20.58,22.68 L19.2,27.78 L16.86,27.78 L14.4,18.06 L16.44,18.06 L17.7,23.34 C17.94,24.3 18.06,25.14 18.18,25.86 C18.18,25.62 18.24,25.2 18.36,24.66 C18.48,24.12 18.54,23.7 18.6,23.4 L20.04,17.94 L21.96,17.94 L23.4,23.4 C23.46,23.64 23.52,24 23.64,24.54 C23.76,25.08 23.82,25.5 23.88,25.86 C23.94,25.5 24,25.08 24.12,24.54 C24.24,24 24.3,23.58 24.36,23.28 L25.62,18 L27.66,18 L25.08,27.78 Z" id="Shape" fill="#3067F0"></path>
                <path d="M15.66,37.74 C15.6,37.74 15.54,37.74 15.48,37.68 C12.48,36.6 9.9,34.62 8.1,31.98 C6.18,29.28 5.22,26.16 5.22,22.86 C5.22,18.66 6.84,14.7 9.84,11.7 C12.84,8.7 16.8,7.08 21,7.08 C25.2,7.08 29.16,8.7 32.16,11.7 C35.16,14.7 36.78,18.66 36.78,22.86 C36.78,26.1 35.82,29.22 33.96,31.86 C32.16,34.44 29.64,36.42 26.76,37.56 C26.46,37.68 26.16,37.56 26.04,37.26 C25.92,36.96 26.04,36.66 26.34,36.54 C29.04,35.46 31.38,33.66 33.06,31.26 C34.8,28.8 35.7,25.92 35.7,22.92 C35.7,19.02 34.2,15.3 31.38,12.54 C28.62,9.78 24.9,8.22 21,8.22 C17.1,8.22 13.38,9.72 10.62,12.54 C7.86,15.3 6.3,19.02 6.3,22.92 C6.3,25.98 7.2,28.92 9,31.38 C10.74,33.84 13.08,35.64 15.9,36.66 C16.2,36.78 16.32,37.08 16.2,37.38 C16.08,37.62 15.9,37.74 15.66,37.74 Z" id="Shape" fill="#929292"></path>
            </g>
            <rect id="Rectangle-path" x="0" y="0" width="60" height="60"></rect>
        </g>
    </g>
</svg>